<?xml version="1.0" encoding="utf-8"?>
<!-- Generator: Adobe Illustrator 16.0.4, SVG Export Plug-In . SVG Version: 6.00 Build 0)  -->
<!DOCTYPE svg PUBLIC "-//W3C//DTD SVG 1.1//EN" "http://www.w3.org/Graphics/SVG/1.1/DTD/svg11.dtd" [
	<!ENTITY ns_extend "http://ns.adobe.com/Extensibility/1.0/">
	<!ENTITY ns_ai "http://ns.adobe.com/AdobeIllustrator/10.0/">
	<!ENTITY ns_graphs "http://ns.adobe.com/Graphs/1.0/">
	<!ENTITY ns_vars "http://ns.adobe.com/Variables/1.0/">
	<!ENTITY ns_imrep "http://ns.adobe.com/ImageReplacement/1.0/">
	<!ENTITY ns_sfw "http://ns.adobe.com/SaveForWeb/1.0/">
	<!ENTITY ns_custom "http://ns.adobe.com/GenericCustomNamespace/1.0/">
	<!ENTITY ns_adobe_xpath "http://ns.adobe.com/XPath/1.0/">
]>
<svg version="1.1" id="Ebene_2" xmlns:x="&ns_extend;" xmlns:i="&ns_ai;" xmlns:graph="&ns_graphs;"
	 xmlns="http://www.w3.org/2000/svg" xmlns:xlink="http://www.w3.org/1999/xlink" x="0px" y="0px" width="540px" height="100px"
	 viewBox="0 0 540 100" enable-background="new 0 0 540 100" xml:space="preserve">
<metadata>
	<sfw  xmlns="&ns_sfw;">
		<slices></slices>
		<sliceSourceBounds  height="75.468" width="506.337" x="161.189" y="259.922" bottomLeftOrigin="true"></sliceSourceBounds>
	</sfw>
</metadata>
<g id="Ebene_1">
	<g id="logo_x2B_Text">
		<g id="Ebene_9">
			<g id="Ebene_8">
				<g>
					<path fill="#354B54" d="M204.72,53.811c-1.504,0.832-3.232,1.248-5.184,1.248c-2.353,0-4.252-0.729-5.7-2.186
						c-1.448-1.455-2.172-3.359-2.172-5.712c0-2.496,0.752-4.5,2.256-6.012c1.504-1.512,3.504-2.268,6-2.268
						c1.68,0,3.144,0.319,4.392,0.96v1.896c-1.52-0.816-3.016-1.224-4.487-1.224c-1.969,0-3.509,0.576-4.62,1.728
						c-1.112,1.152-1.668,2.712-1.668,4.68c0,2.017,0.563,3.604,1.691,4.765c1.128,1.162,2.7,1.74,4.716,1.74
						c1.297,0,2.305-0.217,3.024-0.648v-5.591h1.752V53.811z"/>
					<path fill="#354B54" d="M216.36,54.818h-7.823V39.001h7.752l-0.721,1.633h-5.279v5.279h5.279v1.584h-5.279v5.688h6.071V54.818z
						"/>
					<path fill="#354B54" d="M228.071,50.954c0,1.312-0.52,2.345-1.56,3.097c-0.928,0.672-2.072,1.008-3.432,1.008
						c-1.633,0-3.072-0.416-4.32-1.248l0.84-1.416c1.024,0.721,2.176,1.08,3.456,1.08c0.832,0,1.536-0.184,2.112-0.55
						c0.688-0.43,1.031-1.034,1.031-1.815c0-1.051-0.592-1.959-1.774-2.724c-0.609-0.382-1.715-1.083-3.317-2.104
						c-1.182-0.961-1.771-2.113-1.771-3.459c0-1.266,0.456-2.25,1.368-2.955c0.832-0.656,1.896-0.984,3.191-0.984
						c1.344,0,2.513,0.256,3.504,0.768v1.872c-1.004-0.704-2.151-1.056-3.442-1.056c-1.913,0-2.869,0.723-2.869,2.167
						c0,0.995,0.6,1.887,1.8,2.673l3.36,2.168C227.463,48.45,228.071,49.61,228.071,50.954z"/>
					<path fill="#354B54" d="M239.016,54.818h-7.824V39.001h7.752l-0.72,1.633h-5.28v5.279h5.28v1.584h-5.28v5.688h6.072V54.818z"/>
					<path fill="#354B54" d="M250.127,54.818h-7.752V39.001h1.752v14.185h6V54.818z"/>
					<path fill="#354B54" d="M260.231,54.818h-7.752V39.001h1.752v14.185h6V54.818z"/>
					<path fill="#354B54" d="M270.935,50.954c0,1.312-0.521,2.345-1.56,3.097c-0.93,0.672-2.072,1.008-3.434,1.008
						c-1.632,0-3.071-0.416-4.319-1.248l0.84-1.416c1.023,0.721,2.176,1.08,3.457,1.08c0.831,0,1.535-0.184,2.11-0.55
						c0.688-0.43,1.032-1.034,1.032-1.815c0-1.051-0.592-1.959-1.774-2.724c-0.608-0.382-1.716-1.083-3.316-2.104
						c-1.182-0.961-1.772-2.113-1.772-3.459c0-1.266,0.456-2.25,1.368-2.955c0.832-0.656,1.896-0.984,3.192-0.984
						c1.344,0,2.512,0.256,3.504,0.768v1.872c-1.004-0.704-2.152-1.056-3.443-1.056c-1.911,0-2.867,0.723-2.867,2.167
						c0,0.995,0.6,1.887,1.8,2.673l3.358,2.168C270.326,48.45,270.935,49.61,270.935,50.954z"/>
					<path fill="#354B54" d="M285.118,53.882c-1.408,0.783-2.889,1.177-4.439,1.177c-2.32,0-4.177-0.752-5.568-2.256
						c-1.344-1.457-2.017-3.361-2.017-5.713c0-2.353,0.729-4.309,2.185-5.868c1.456-1.561,3.353-2.34,5.688-2.34
						c1.696,0,3.04,0.312,4.032,0.936v1.872c-1.28-0.816-2.648-1.224-4.104-1.224c-1.792,0-3.24,0.649-4.345,1.947
						c-1.056,1.219-1.584,2.741-1.584,4.568c0,1.907,0.505,3.446,1.513,4.617c1.057,1.25,2.521,1.875,4.393,1.875
						c1.248,0,2.487-0.344,3.72-1.031L285.118,53.882z"/>
					<path fill="#354B54" d="M300.167,54.818h-1.752V47.57h-8.664v7.249h-1.752V39.001h1.752v6.984h8.664v-6.984h1.752V54.818z"/>
					<path fill="#354B54" d="M315.741,54.818h-1.85l-1.641-4.225h-6.362l-1.506,4.225h-1.746l6.048-15.888h0.984L315.741,54.818z
						 M311.638,49.01l-1.879-5.335c-0.306-0.86-0.507-1.515-0.604-1.961h-0.023c-0.16,0.574-0.369,1.221-0.626,1.939l-1.962,5.356
						h5.094V49.01z"/>
					<path fill="#354B54" d="M325.918,39.001l-0.722,1.633h-5.278v5.352h5.278v1.584h-5.278v7.249h-1.752V39.001H325.918z"/>
					<path fill="#354B54" d="M339.021,39.001l-0.624,1.633h-4.486v14.185h-1.752V40.634h-4.536v-1.633H339.021z"/>
					<path fill="#354B54" d="M354.934,39.001l-0.721,1.633h-5.279v5.352h5.279v1.584h-5.279v7.249h-1.752V39.001H354.934z"/>
					<path fill="#354B54" d="M369.837,49.538c0,1.81-0.544,3.192-1.632,4.151c-1.023,0.912-2.456,1.369-4.296,1.369
						c-3.809,0-5.713-1.978-5.713-5.93V39.001h1.753v10.152c0,1.344,0.336,2.4,1.008,3.167c0.672,0.77,1.672,1.152,3,1.152
						c2.752,0,4.128-1.393,4.128-4.176V39.001h1.752V49.538L369.837,49.538z M363.117,36.673c0,0.32-0.107,0.593-0.324,0.816
						c-0.216,0.225-0.483,0.336-0.805,0.336c-0.32,0-0.588-0.111-0.804-0.336c-0.216-0.224-0.324-0.496-0.324-0.816
						c0-0.319,0.108-0.591,0.324-0.815s0.483-0.336,0.804-0.336c0.321,0,0.589,0.112,0.805,0.336
						C363.01,36.082,363.117,36.354,363.117,36.673z M367.197,36.673c0,0.32-0.106,0.593-0.323,0.816
						c-0.217,0.225-0.483,0.336-0.805,0.336c-0.32,0-0.588-0.111-0.804-0.336c-0.216-0.224-0.324-0.496-0.324-0.816
						c0-0.319,0.108-0.591,0.324-0.815s0.483-0.336,0.804-0.336c0.321,0,0.589,0.112,0.805,0.336
						C367.09,36.082,367.197,36.354,367.197,36.673z"/>
					<path fill="#354B54" d="M384.321,54.818h-2.101l-3.049-4.823c-0.752-1.185-1.312-1.816-1.68-1.896h-1.703v6.719h-1.752V39.001
						h3.264c1.536,0,2.76,0.32,3.672,0.959c1.04,0.735,1.56,1.838,1.56,3.309c0,0.99-0.278,1.865-0.84,2.625
						c-0.56,0.759-1.312,1.306-2.256,1.642v0.023c0.211,0.112,0.771,0.84,1.677,2.182C381.544,50.382,382.613,52.075,384.321,54.818
						z M380.637,43.455c0-1.881-1.112-2.82-3.336-2.82h-1.512v5.88h1.606c0.896,0,1.66-0.291,2.292-0.872
						C380.32,45.06,380.637,44.331,380.637,43.455z"/>
					<path fill="#354B54" d="M394.462,54.818h-1.752V39.001h1.752V54.818z"/>
					<path fill="#354B54" d="M411.597,54.818h-1.624l-8.026-10.654c-0.879-1.185-1.431-2.01-1.652-2.474c0,0.704,0,1.344,0,1.92
						v11.208h-1.752V39.001h1.822l7.682,10.272c0.991,1.329,1.592,2.215,1.8,2.665c0-0.705,0-1.344,0-1.92V39.001h1.752
						L411.597,54.818L411.597,54.818z"/>
					<path fill="#354B54" d="M425.54,39.001l-0.624,1.633h-4.486v14.185h-1.752V40.634h-4.536v-1.633H425.54z"/>
					<path fill="#354B54" d="M435.524,54.818H427.7V39.001h7.752l-0.721,1.633h-5.279v5.279h5.279v1.584h-5.279v5.688h6.071V54.818
						L435.524,54.818z"/>
					<path fill="#354B54" d="M451.004,53.811c-1.504,0.832-3.231,1.248-5.185,1.248c-2.352,0-4.252-0.729-5.7-2.186
						c-1.447-1.455-2.172-3.359-2.172-5.712c0-2.496,0.752-4.5,2.256-6.012c1.504-1.512,3.504-2.268,6-2.268
						c1.682,0,3.146,0.319,4.394,0.96v1.896c-1.521-0.816-3.018-1.224-4.488-1.224c-1.968,0-3.508,0.576-4.62,1.728
						c-1.111,1.152-1.668,2.712-1.668,4.68c0,2.017,0.564,3.604,1.692,4.765c1.128,1.162,2.699,1.74,4.716,1.74
						c1.296,0,2.304-0.217,3.023-0.648v-5.591h1.752V53.811L451.004,53.811z"/>
					<path fill="#354B54" d="M465.104,54.818h-2.101l-3.05-4.823c-0.752-1.185-1.312-1.816-1.68-1.896h-1.703v6.719h-1.752V39.001
						h3.264c1.536,0,2.761,0.32,3.673,0.959c1.04,0.735,1.56,1.838,1.56,3.309c0,0.99-0.279,1.865-0.84,2.625
						c-0.561,0.759-1.312,1.306-2.256,1.642v0.023c0.211,0.112,0.77,0.84,1.677,2.182C462.326,50.382,463.396,52.075,465.104,54.818
						z M461.42,43.455c0-1.881-1.112-2.82-3.336-2.82h-1.513v5.88h1.607c0.896,0,1.66-0.291,2.292-0.872
						C461.104,45.06,461.42,44.331,461.42,43.455z"/>
					<path fill="#354B54" d="M469.243,54.818h-1.752V39.001h1.752V54.818z"/>
					<path fill="#354B54" d="M481.147,54.818h-7.823V39.001h7.752l-0.721,1.633h-5.279v5.279h5.279v1.584h-5.279v5.688h6.071V54.818
						L481.147,54.818z"/>
					<path fill="#354B54" d="M494.791,54.818h-2.101l-3.049-4.823c-0.752-1.185-1.312-1.816-1.68-1.896h-1.703v6.719h-1.752V39.001
						h3.264c1.536,0,2.76,0.32,3.672,0.959c1.04,0.735,1.561,1.838,1.561,3.309c0,0.99-0.279,1.865-0.841,2.625
						c-0.56,0.759-1.312,1.306-2.256,1.642v0.023c0.211,0.112,0.771,0.84,1.677,2.182C492.015,50.382,493.084,52.075,494.791,54.818
						z M491.107,43.455c0-1.881-1.112-2.82-3.336-2.82h-1.512v5.88h1.606c0.896,0,1.66-0.291,2.292-0.872
						C490.79,45.06,491.107,44.331,491.107,43.455z"/>
					<path fill="#354B54" d="M507.043,39.001l-0.624,1.633h-4.487v14.185h-1.752V40.634h-4.536v-1.633H507.043z"/>
					<path fill="#354B54" d="M517.027,54.818h-7.823V39.001h7.752l-0.721,1.633h-5.279v5.279h5.279v1.584h-5.279v5.688h6.071V54.818
						z"/>
				</g>
				<g>
					<g>
						<path fill="#354B54" d="M204.72,79.811c-1.504,0.832-3.232,1.248-5.184,1.248c-2.353,0-4.252-0.729-5.7-2.186
							c-1.448-1.455-2.172-3.359-2.172-5.712c0-2.496,0.752-4.5,2.256-6.013c1.504-1.512,3.504-2.268,6-2.268
							c1.68,0,3.144,0.319,4.392,0.96v1.896c-1.52-0.815-3.016-1.223-4.487-1.223c-1.969,0-3.509,0.575-4.62,1.728
							c-1.112,1.151-1.668,2.712-1.668,4.68c0,2.017,0.563,3.604,1.691,4.765c1.128,1.162,2.7,1.74,4.716,1.74
							c1.297,0,2.305-0.217,3.024-0.648v-5.592h1.752V79.811z"/>
						<path fill="#354B54" d="M216.36,80.818h-7.823V65.001h7.752l-0.721,1.634h-5.279v5.278h5.279v1.584h-5.279v5.688h6.071V80.818
							z"/>
						<path fill="#354B54" d="M228.071,76.954c0,1.312-0.52,2.345-1.56,3.097c-0.928,0.672-2.072,1.008-3.432,1.008
							c-1.633,0-3.072-0.416-4.32-1.248l0.84-1.416c1.024,0.721,2.176,1.08,3.456,1.08c0.832,0,1.536-0.184,2.112-0.55
							c0.688-0.43,1.031-1.034,1.031-1.815c0-1.051-0.592-1.959-1.774-2.725c-0.609-0.382-1.715-1.082-3.317-2.104
							c-1.182-0.961-1.771-2.113-1.771-3.459c0-1.266,0.456-2.25,1.368-2.955c0.832-0.656,1.896-0.984,3.191-0.984
							c1.344,0,2.513,0.256,3.504,0.768v1.873c-1.004-0.705-2.151-1.057-3.442-1.057c-1.913,0-2.869,0.723-2.869,2.168
							c0,0.994,0.6,1.887,1.8,2.672l3.36,2.168C227.463,74.45,228.071,75.609,228.071,76.954z"/>
						<path fill="#354B54" d="M242.855,75.538c0,1.81-0.544,3.192-1.632,4.151c-1.023,0.912-2.457,1.369-4.296,1.369
							c-3.808,0-5.712-1.978-5.712-5.93V65.001h1.752v10.151c0,1.345,0.336,2.4,1.008,3.168c0.672,0.77,1.671,1.152,3,1.152
							c2.751,0,4.128-1.393,4.128-4.176V65.001h1.752V75.538L242.855,75.538z"/>
						<path fill="#354B54" d="M260.111,80.818h-1.624l-8.025-10.654c-0.879-1.186-1.431-2.01-1.654-2.475c0,0.705,0,1.345,0,1.92
							v11.209h-1.752V65.001h1.824l7.68,10.272c0.992,1.328,1.591,2.215,1.8,2.664c0-0.705,0-1.344,0-1.92V65.001h1.752V80.818z"/>
						<path fill="#354B54" d="M276.239,72.753c0,2.577-0.783,4.576-2.353,6c-1.504,1.377-3.56,2.063-6.168,2.063h-3.527V65.001
							h3.433c2.624,0,4.688,0.624,6.191,1.872C275.431,68.219,276.239,70.178,276.239,72.753z M274.438,72.73
							c0-1.969-0.6-3.488-1.8-4.562c-1.151-1.022-2.72-1.534-4.704-1.534h-1.991v12.551h1.943c2.096,0,3.712-0.556,4.849-1.668
							C273.871,76.406,274.438,74.811,274.438,72.73z"/>
						<path fill="#354B54" d="M291.527,80.818h-1.752V73.57h-8.664v7.248h-1.752V65.001h1.752v6.983h8.664v-6.983h1.752V80.818z"/>
						<path fill="#354B54" d="M303.431,80.818h-7.823V65.001h7.752l-0.721,1.634h-5.279v5.278h5.279v1.584h-5.279v5.688h6.071
							V80.818L303.431,80.818z"/>
						<path fill="#354B54" d="M308.543,80.818h-1.752V65.001h1.752V80.818z"/>
						<path fill="#354B54" d="M322.486,65.001l-0.624,1.634h-4.486v14.184h-1.752V66.635h-4.536v-1.634H322.486z"/>
						<path fill="#354B54" d="M332.998,76.954c0,1.312-0.521,2.345-1.561,3.097c-0.929,0.672-2.071,1.008-3.433,1.008
							c-1.632,0-3.072-0.416-4.32-1.248l0.841-1.416c1.023,0.721,2.177,1.08,3.456,1.08c0.831,0,1.535-0.184,2.111-0.55
							c0.688-0.43,1.032-1.034,1.032-1.815c0-1.051-0.593-1.959-1.775-2.725c-0.607-0.382-1.715-1.082-3.316-2.104
							c-1.182-0.961-1.771-2.113-1.771-3.459c0-1.266,0.456-2.25,1.368-2.955c0.832-0.656,1.896-0.984,3.191-0.984
							c1.345,0,2.513,0.256,3.505,0.768v1.873c-1.005-0.705-2.152-1.057-3.443-1.057c-1.912,0-2.869,0.723-2.869,2.168
							c0,0.994,0.602,1.887,1.801,2.672l3.359,2.168C332.39,74.45,332.998,75.609,332.998,76.954z"/>
						<path fill="#354B54" d="M348.43,65.001l-6.768,15.89h-0.984l-6.239-15.89h1.855l4.062,10.54
							c0.255,0.656,0.55,1.473,0.886,2.449l0.049-0.006c0.293-0.862,0.603-1.678,0.929-2.444l4.385-10.539H348.43z"/>
						<path fill="#354B54" d="M358.653,80.818h-7.822V65.001h7.752l-0.722,1.634h-5.278v5.278h5.278v1.584h-5.278v5.688h6.07V80.818
							L358.653,80.818z"/>
						<path fill="#354B54" d="M372.298,80.818h-2.102l-3.049-4.823c-0.752-1.185-1.312-1.815-1.68-1.896h-1.703v6.719h-1.752V65.001
							h3.264c1.536,0,2.761,0.319,3.672,0.959c1.04,0.735,1.561,1.838,1.561,3.31c0,0.989-0.279,1.864-0.84,2.625
							c-0.561,0.758-1.312,1.306-2.256,1.642v0.022c0.211,0.112,0.77,0.84,1.677,2.182C369.521,76.382,370.59,78.075,372.298,80.818
							z M368.613,69.455c0-1.881-1.111-2.82-3.336-2.82h-1.512v5.881h1.607c0.896,0,1.66-0.291,2.292-0.873
							C368.297,71.061,368.613,70.331,368.613,69.455z"/>
						<path fill="#354B54" d="M383.037,76.954c0,1.312-0.521,2.345-1.561,3.097c-0.929,0.672-2.072,1.008-3.433,1.008
							c-1.632,0-3.072-0.416-4.32-1.248l0.841-1.416c1.023,0.721,2.176,1.08,3.456,1.08c0.831,0,1.535-0.184,2.111-0.55
							c0.688-0.43,1.032-1.034,1.032-1.815c0-1.051-0.593-1.959-1.775-2.725c-0.608-0.382-1.715-1.082-3.317-2.104
							c-1.181-0.961-1.771-2.113-1.771-3.459c0-1.266,0.456-2.25,1.368-2.955c0.832-0.656,1.896-0.984,3.191-0.984
							c1.345,0,2.513,0.256,3.504,0.768v1.873c-1.004-0.705-2.151-1.057-3.442-1.057c-1.912,0-2.869,0.723-2.869,2.168
							c0,0.994,0.601,1.887,1.801,2.672l3.359,2.168C382.429,74.45,383.037,75.609,383.037,76.954z"/>
						<path fill="#354B54" d="M400.846,72.994c0,2.367-0.716,4.305-2.148,5.809c-1.432,1.504-3.322,2.256-5.676,2.256
							c-2.368,0-4.271-0.76-5.712-2.279c-1.408-1.473-2.112-3.399-2.112-5.784c0-2.353,0.722-4.292,2.16-5.819
							c1.44-1.527,3.328-2.291,5.664-2.291c2.354,0,4.244,0.76,5.676,2.278C400.13,68.682,400.846,70.626,400.846,72.994z
							 M398.95,72.994c0-1.92-0.506-3.456-1.514-4.607c-1.056-1.216-2.527-1.824-4.416-1.824c-1.888,0-3.358,0.608-4.416,1.824
							c-1.008,1.151-1.512,2.688-1.512,4.607s0.504,3.456,1.512,4.607c1.058,1.217,2.528,1.824,4.416,1.824
							c1.889,0,3.36-0.607,4.416-1.824C398.445,76.45,398.95,74.914,398.95,72.994z"/>
						<path fill="#354B54" d="M414.25,80.818h-2.102l-3.049-4.823c-0.752-1.185-1.312-1.815-1.68-1.896h-1.703v6.719h-1.752V65.001
							h3.264c1.536,0,2.76,0.319,3.672,0.959c1.04,0.735,1.561,1.838,1.561,3.31c0,0.989-0.279,1.864-0.84,2.625
							c-0.561,0.758-1.312,1.306-2.257,1.642v0.022c0.212,0.112,0.771,0.84,1.678,2.182
							C411.473,76.382,412.542,78.075,414.25,80.818z M410.565,69.455c0-1.881-1.111-2.82-3.336-2.82h-1.512v5.881h1.607
							c0.896,0,1.659-0.291,2.292-0.873S410.565,70.331,410.565,69.455z"/>
						<path fill="#354B54" d="M428.757,79.811c-1.504,0.832-3.231,1.248-5.185,1.248c-2.352,0-4.252-0.729-5.699-2.186
							c-1.448-1.455-2.172-3.359-2.172-5.712c0-2.496,0.752-4.5,2.256-6.013c1.504-1.512,3.504-2.268,5.999-2.268
							c1.682,0,3.146,0.319,4.394,0.96v1.896c-1.521-0.815-3.018-1.223-4.488-1.223c-1.968,0-3.508,0.575-4.619,1.728
							c-1.112,1.151-1.668,2.712-1.668,4.68c0,2.017,0.563,3.604,1.691,4.765c1.128,1.162,2.699,1.74,4.716,1.74
							c1.296,0,2.304-0.217,3.023-0.648v-5.592h1.752V79.811L428.757,79.811z"/>
						<path fill="#354B54" d="M444.236,75.538c0,1.81-0.544,3.192-1.632,4.151c-1.023,0.912-2.456,1.369-4.296,1.369
							c-3.808,0-5.712-1.978-5.712-5.93V65.001h1.752v10.151c0,1.345,0.336,2.4,1.008,3.168c0.672,0.77,1.672,1.152,3,1.152
							c2.752,0,4.128-1.393,4.128-4.176V65.001h1.752V75.538L444.236,75.538z"/>
						<path fill="#354B54" d="M461.492,80.818h-1.624l-8.025-10.654c-0.879-1.186-1.432-2.01-1.653-2.475c0,0.705,0,1.345,0,1.92
							v11.209h-1.752V65.001h1.823l7.681,10.272c0.991,1.328,1.592,2.215,1.8,2.664c0-0.705,0-1.344,0-1.92V65.001h1.752
							L461.492,80.818L461.492,80.818z"/>
						<path fill="#354B54" d="M477.691,79.811c-1.504,0.832-3.23,1.248-5.184,1.248c-2.353,0-4.252-0.729-5.7-2.186
							c-1.448-1.455-2.172-3.359-2.172-5.712c0-2.496,0.752-4.5,2.256-6.013c1.504-1.512,3.504-2.268,6-2.268
							c1.681,0,3.145,0.319,4.393,0.96v1.896c-1.521-0.815-3.017-1.223-4.487-1.223c-1.969,0-3.509,0.575-4.62,1.728
							c-1.112,1.151-1.668,2.712-1.668,4.68c0,2.017,0.563,3.604,1.691,4.765c1.128,1.162,2.699,1.74,4.717,1.74
							c1.296,0,2.304-0.217,3.022-0.648v-5.592h1.752V79.811L477.691,79.811z"/>
					</g>
				</g>
			</g>
			<g id="Ebene_7">
				<g id="Ebene_6">
					<g id="Ebene_4">
						<path fill="#164194" d="M146.902,74.387c-2.905,1.342-6.781,2.01-11.628,2.01c-7.901,0-14.18-2.533-18.838-7.603
							c-4.66-5.065-6.988-11.553-6.988-19.451c0-8.35,2.496-14.777,7.492-19.289c4.99-4.51,11.7-6.764,20.122-6.764
							c0.693,0,1.386,0.023,2.08,0.061l18.254-6.592l0.015-0.848c-7.156-2.531-14.385-3.801-21.688-3.801
							c-11.778,0-21.467,3.43-29.068,10.285c-3.462,3.072-6.17,6.572-8.128,10.498v35.509c1.63,3.308,3.778,6.289,6.45,8.945
							c6.854,6.818,15.838,10.23,26.943,10.23c10.582,0,20.086-2.311,28.513-6.934V49.351l-13.53,4.887V74.387L146.902,74.387z"/>
						<path fill="#164194" d="M157.337,20.121l-11.528,4.164c3.792,0.861,7.587,2.281,11.381,4.262L157.337,20.121z"/>
					</g>
					<g id="Ebene_5">
						<polygon fill="#164194" points="80.747,47.783 80.747,87.557 94.281,87.557 94.281,42.894 						"/>
						<polygon fill="#164194" points="94.282,39.552 94.282,34.402 80.746,39.291 80.746,44.441 						"/>
					</g>
				</g>
				<g id="Ebene_3">
					<path fill="#164194" d="M62.902,54.227v20.16c-2.905,1.342-6.781,2.01-11.628,2.01c-7.901,0-14.18-2.533-18.838-7.601
						c-4.66-5.067-6.987-11.555-6.987-19.453c0-8.35,2.495-14.777,7.491-19.287c4.99-4.512,11.7-6.766,20.122-6.766
						c6.71,0,13.418,1.754,20.126,5.256l0.223-12.635c-7.156-2.531-14.385-3.801-21.688-3.801c-11.778,0-21.467,3.43-29.068,10.285
						C14.674,29.48,10.69,38.83,10.69,50.458c0,11.106,3.427,20.069,10.286,26.892c6.349,6.312,14.521,9.705,24.519,10.174
						L76.432,76.35V49.343h-0.007L62.902,54.227z"/>
				</g>
			</g>
		</g>
	</g>
</g>
</svg>
